<svg width="518" height="87" viewBox="0 0 518 87" fill="none" xmlns="http://www.w3.org/2000/svg">
<g filter="url(#filter0_ii_10_65)">
<path fill-rule="evenodd" clip-rule="evenodd" d="M89.2103 60.9288C90.9542 57.5983 87.3835 54.2953 83.7177 55.1291C80.3512 55.8949 76.8473 56.2993 73.2489 56.2993C47.2914 56.2993 26.2486 35.2565 26.2486 9.29897C26.2486 8.11063 26.2927 6.93259 26.3794 5.7664C26.6579 2.01728 22.8553 -1.0188 19.8212 1.20112C8.13514 9.75148 0.545288 23.5682 0.545288 39.1576C0.545288 65.1151 21.5881 86.1579 47.5456 86.1579C65.6468 86.1579 81.3581 75.9252 89.2103 60.9288Z" fill="url(#paint0_linear_10_65)"/>
</g>
<path d="M131.214 74.7677V10.8767H143.536V65.1841H171.557V74.7677H131.214ZM193.701 75.863C189.868 75.863 186.703 75.2545 184.209 74.0375C181.714 72.7597 179.858 71.0864 178.641 69.0175C177.485 66.8878 176.907 64.5452 176.907 61.9895C176.907 59.1905 177.607 56.7261 179.006 54.5964C180.466 52.4667 182.627 50.7934 185.486 49.5764C188.407 48.3594 192.058 47.7509 196.439 47.7509H207.848C207.848 45.4995 207.544 43.6437 206.936 42.1833C206.327 40.6621 205.384 39.5364 204.106 38.8062C202.828 38.076 201.125 37.7109 198.995 37.7109C196.683 37.7109 194.705 38.2281 193.062 39.2625C191.48 40.2361 190.506 41.7573 190.141 43.8262H178.185C178.489 40.5404 179.554 37.7109 181.379 35.3378C183.265 32.9039 185.73 31.0176 188.772 29.6789C191.876 28.3402 195.313 27.6709 199.086 27.6709C203.406 27.6709 207.149 28.4011 210.313 29.8614C213.477 31.3218 215.911 33.4211 217.615 36.1593C219.318 38.8975 220.17 42.2746 220.17 46.2906V74.7677H209.765L208.396 67.7397C207.727 68.9567 206.936 70.052 206.023 71.0255C205.11 71.9991 204.045 72.851 202.828 73.5812C201.611 74.3114 200.242 74.859 198.721 75.2241C197.2 75.65 195.526 75.863 193.701 75.863ZM196.622 66.3706C198.204 66.3706 199.603 66.0968 200.82 65.5492C202.098 64.9407 203.193 64.1496 204.106 63.1761C205.019 62.1416 205.719 60.9855 206.205 59.7077C206.753 58.369 207.118 56.9391 207.301 55.4179V55.3266H197.9C196.013 55.3266 194.462 55.57 193.245 56.0568C192.089 56.4827 191.237 57.1216 190.689 57.9735C190.141 58.8254 189.868 59.799 189.868 60.8942C189.868 62.1112 190.141 63.1152 190.689 63.9062C191.237 64.6973 192.028 65.3058 193.062 65.7317C194.097 66.1576 195.283 66.3706 196.622 66.3706ZM228.014 74.7677V28.7662H238.875L239.879 34.8814C241.34 32.6909 243.257 30.9567 245.63 29.6789C248.064 28.3402 250.832 27.6709 253.935 27.6709C256.248 27.6709 258.317 27.9751 260.142 28.5836C261.967 29.1921 263.58 30.0744 264.979 31.2305C266.44 32.3867 267.626 33.847 268.539 35.6116C270.243 33.1168 272.464 31.1697 275.202 29.7702C277.94 28.3706 280.922 27.6709 284.147 27.6709C288.163 27.6709 291.509 28.4923 294.187 30.1353C296.864 31.7173 298.872 34.0296 300.211 37.072C301.61 40.1144 302.31 43.8566 302.31 48.2986V74.7677H290.08V49.3938C290.08 45.7429 289.349 42.9439 287.889 40.9967C286.489 39.0496 284.299 38.076 281.317 38.076C279.37 38.076 277.636 38.5628 276.115 39.5364C274.594 40.5099 273.407 41.9095 272.555 43.7349C271.764 45.5604 271.369 47.7509 271.369 50.3066V74.7677H259.047V49.3938C259.047 45.7429 258.317 42.9439 256.856 40.9967C255.396 39.0496 253.144 38.076 250.102 38.076C248.216 38.076 246.512 38.5628 244.991 39.5364C243.53 40.5099 242.374 41.9095 241.522 43.7349C240.731 45.5604 240.336 47.7509 240.336 50.3066V74.7677H228.014ZM310.562 74.7677V28.7662H322.884V74.7677H310.562ZM316.768 22.4683C314.578 22.4683 312.752 21.8294 311.292 20.5516C309.892 19.2129 309.193 17.5396 309.193 15.5316C309.193 13.5236 309.892 11.8807 311.292 10.6028C312.752 9.26417 314.578 8.59483 316.768 8.59483C319.02 8.59483 320.845 9.26417 322.245 10.6028C323.705 11.8807 324.435 13.5236 324.435 15.5316C324.435 17.5396 323.705 19.2129 322.245 20.5516C320.845 21.8294 319.02 22.4683 316.768 22.4683ZM331.684 74.7677V28.7662H342.545L343.458 36.2505C344.857 33.6949 346.835 31.626 349.391 30.044C352.007 28.4619 355.11 27.6709 358.7 27.6709C362.534 27.6709 365.759 28.4619 368.375 30.044C370.992 31.626 372.969 33.9383 374.308 36.9807C375.708 40.0232 376.407 43.7653 376.407 48.2073V74.7677H364.177V49.3938C364.177 45.7429 363.386 42.9439 361.804 40.9967C360.282 39.0496 357.909 38.076 354.684 38.076C352.616 38.076 350.76 38.5628 349.117 39.5364C347.535 40.5099 346.287 41.9095 345.375 43.7349C344.462 45.4995 344.005 47.6597 344.005 50.2153V74.7677H331.684ZM399.882 75.863C396.048 75.863 392.884 75.2545 390.389 74.0375C387.894 72.7597 386.039 71.0864 384.822 69.0175C383.665 66.8878 383.087 64.5452 383.087 61.9895C383.087 59.1905 383.787 56.7261 385.187 54.5964C386.647 52.4667 388.807 50.7934 391.667 49.5764C394.588 48.3594 398.239 47.7509 402.62 47.7509H414.029C414.029 45.4995 413.725 43.6437 413.116 42.1833C412.508 40.6621 411.565 39.5364 410.287 38.8062C409.009 38.076 407.305 37.7109 405.175 37.7109C402.863 37.7109 400.886 38.2281 399.243 39.2625C397.661 40.2361 396.687 41.7573 396.322 43.8262H384.365C384.669 40.5404 385.734 37.7109 387.56 35.3378C389.446 32.9039 391.91 31.0176 394.953 29.6789C398.056 28.3402 401.494 27.6709 405.267 27.6709C409.587 27.6709 413.329 28.4011 416.493 29.8614C419.657 31.3218 422.091 33.4211 423.795 36.1593C425.499 38.8975 426.351 42.2746 426.351 46.2906V74.7677H415.946L414.577 67.7397C413.907 68.9567 413.116 70.052 412.203 71.0255C411.291 71.9991 410.226 72.851 409.009 73.5812C407.792 74.3114 406.423 74.859 404.902 75.2241C403.38 75.65 401.707 75.863 399.882 75.863ZM402.802 66.3706C404.384 66.3706 405.784 66.0968 407.001 65.5492C408.279 64.9407 409.374 64.1496 410.287 63.1761C411.199 62.1416 411.899 60.9855 412.386 59.7077C412.934 58.369 413.299 56.9391 413.481 55.4179V55.3266H404.08C402.194 55.3266 400.642 55.57 399.425 56.0568C398.269 56.4827 397.417 57.1216 396.87 57.9735C396.322 58.8254 396.048 59.799 396.048 60.8942C396.048 62.1112 396.322 63.1152 396.87 63.9062C397.417 64.6973 398.208 65.3058 399.243 65.7317C400.277 66.1576 401.464 66.3706 402.802 66.3706ZM454.379 74.7677C451.154 74.7677 448.324 74.2809 445.89 73.3074C443.517 72.2729 441.661 70.5996 440.323 68.2874C438.984 65.9143 438.315 62.6893 438.315 58.6124V39.08H430.465V28.7662H438.315L439.684 16.2618H450.637V28.7662H462.776V39.08H450.637V58.795C450.637 60.8638 451.093 62.2938 452.006 63.0848C452.918 63.8758 454.47 64.2713 456.661 64.2713H462.685V74.7677H454.379ZM490.424 75.863C485.8 75.863 481.693 74.8894 478.103 72.9423C474.573 70.9343 471.805 68.1657 469.797 64.6364C467.85 61.0464 466.876 56.9087 466.876 52.2233C466.876 47.4163 467.85 43.1873 469.797 39.5364C471.805 35.8246 474.573 32.9343 478.103 30.8654C481.632 28.7357 485.739 27.6709 490.424 27.6709C494.988 27.6709 498.974 28.6749 502.381 30.6829C505.789 32.6909 508.436 35.3987 510.322 38.8062C512.208 42.2137 513.151 46.0776 513.151 50.3978C513.151 51.0063 513.151 51.7061 513.151 52.4971C513.151 53.2273 513.091 53.9879 512.969 54.779H475.638V47.2946H500.738C500.556 44.313 499.491 41.9703 497.544 40.2666C495.657 38.5628 493.284 37.7109 490.424 37.7109C488.356 37.7109 486.439 38.1977 484.674 39.1713C482.91 40.084 481.51 41.5139 480.476 43.4611C479.502 45.4083 479.015 47.8726 479.015 50.8542V53.5011C479.015 55.9959 479.472 58.1865 480.384 60.0728C481.358 61.8982 482.697 63.3282 484.4 64.3626C486.104 65.3362 488.082 65.823 490.333 65.823C492.585 65.823 494.44 65.3362 495.901 64.3626C497.422 63.389 498.548 62.1416 499.278 60.6204H511.874C511.022 63.4803 509.592 66.0664 507.584 68.3786C505.576 70.6909 503.111 72.5163 500.191 73.855C497.27 75.1937 494.014 75.863 490.424 75.863Z" fill="white"/>
<path d="M131.214 74.7677V10.8767H143.536V65.1841H171.557V74.7677H131.214ZM193.701 75.863C189.868 75.863 186.703 75.2545 184.209 74.0375C181.714 72.7597 179.858 71.0864 178.641 69.0175C177.485 66.8878 176.907 64.5452 176.907 61.9895C176.907 59.1905 177.607 56.7261 179.006 54.5964C180.466 52.4667 182.627 50.7934 185.486 49.5764C188.407 48.3594 192.058 47.7509 196.439 47.7509H207.848C207.848 45.4995 207.544 43.6437 206.936 42.1833C206.327 40.6621 205.384 39.5364 204.106 38.8062C202.828 38.076 201.125 37.7109 198.995 37.7109C196.683 37.7109 194.705 38.2281 193.062 39.2625C191.48 40.2361 190.506 41.7573 190.141 43.8262H178.185C178.489 40.5404 179.554 37.7109 181.379 35.3378C183.265 32.9039 185.73 31.0176 188.772 29.6789C191.876 28.3402 195.313 27.6709 199.086 27.6709C203.406 27.6709 207.149 28.4011 210.313 29.8614C213.477 31.3218 215.911 33.4211 217.615 36.1593C219.318 38.8975 220.17 42.2746 220.17 46.2906V74.7677H209.765L208.396 67.7397C207.727 68.9567 206.936 70.052 206.023 71.0255C205.11 71.9991 204.045 72.851 202.828 73.5812C201.611 74.3114 200.242 74.859 198.721 75.2241C197.2 75.65 195.526 75.863 193.701 75.863ZM196.622 66.3706C198.204 66.3706 199.603 66.0968 200.82 65.5492C202.098 64.9407 203.193 64.1496 204.106 63.1761C205.019 62.1416 205.719 60.9855 206.205 59.7077C206.753 58.369 207.118 56.9391 207.301 55.4179V55.3266H197.9C196.013 55.3266 194.462 55.57 193.245 56.0568C192.089 56.4827 191.237 57.1216 190.689 57.9735C190.141 58.8254 189.868 59.799 189.868 60.8942C189.868 62.1112 190.141 63.1152 190.689 63.9062C191.237 64.6973 192.028 65.3058 193.062 65.7317C194.097 66.1576 195.283 66.3706 196.622 66.3706ZM228.014 74.7677V28.7662H238.875L239.879 34.8814C241.34 32.6909 243.257 30.9567 245.63 29.6789C248.064 28.3402 250.832 27.6709 253.935 27.6709C256.248 27.6709 258.317 27.9751 260.142 28.5836C261.967 29.1921 263.58 30.0744 264.979 31.2305C266.44 32.3867 267.626 33.847 268.539 35.6116C270.243 33.1168 272.464 31.1697 275.202 29.7702C277.94 28.3706 280.922 27.6709 284.147 27.6709C288.163 27.6709 291.509 28.4923 294.187 30.1353C296.864 31.7173 298.872 34.0296 300.211 37.072C301.61 40.1144 302.31 43.8566 302.31 48.2986V74.7677H290.08V49.3938C290.08 45.7429 289.349 42.9439 287.889 40.9967C286.489 39.0496 284.299 38.076 281.317 38.076C279.37 38.076 277.636 38.5628 276.115 39.5364C274.594 40.5099 273.407 41.9095 272.555 43.7349C271.764 45.5604 271.369 47.7509 271.369 50.3066V74.7677H259.047V49.3938C259.047 45.7429 258.317 42.9439 256.856 40.9967C255.396 39.0496 253.144 38.076 250.102 38.076C248.216 38.076 246.512 38.5628 244.991 39.5364C243.53 40.5099 242.374 41.9095 241.522 43.7349C240.731 45.5604 240.336 47.7509 240.336 50.3066V74.7677H228.014ZM310.562 74.7677V28.7662H322.884V74.7677H310.562ZM316.768 22.4683C314.578 22.4683 312.752 21.8294 311.292 20.5516C309.892 19.2129 309.193 17.5396 309.193 15.5316C309.193 13.5236 309.892 11.8807 311.292 10.6028C312.752 9.26417 314.578 8.59483 316.768 8.59483C319.02 8.59483 320.845 9.26417 322.245 10.6028C323.705 11.8807 324.435 13.5236 324.435 15.5316C324.435 17.5396 323.705 19.2129 322.245 20.5516C320.845 21.8294 319.02 22.4683 316.768 22.4683ZM331.684 74.7677V28.7662H342.545L343.458 36.2505C344.857 33.6949 346.835 31.626 349.391 30.044C352.007 28.4619 355.11 27.6709 358.7 27.6709C362.534 27.6709 365.759 28.4619 368.375 30.044C370.992 31.626 372.969 33.9383 374.308 36.9807C375.708 40.0232 376.407 43.7653 376.407 48.2073V74.7677H364.177V49.3938C364.177 45.7429 363.386 42.9439 361.804 40.9967C360.282 39.0496 357.909 38.076 354.684 38.076C352.616 38.076 350.76 38.5628 349.117 39.5364C347.535 40.5099 346.287 41.9095 345.375 43.7349C344.462 45.4995 344.005 47.6597 344.005 50.2153V74.7677H331.684ZM399.882 75.863C396.048 75.863 392.884 75.2545 390.389 74.0375C387.894 72.7597 386.039 71.0864 384.822 69.0175C383.665 66.8878 383.087 64.5452 383.087 61.9895C383.087 59.1905 383.787 56.7261 385.187 54.5964C386.647 52.4667 388.807 50.7934 391.667 49.5764C394.588 48.3594 398.239 47.7509 402.62 47.7509H414.029C414.029 45.4995 413.725 43.6437 413.116 42.1833C412.508 40.6621 411.565 39.5364 410.287 38.8062C409.009 38.076 407.305 37.7109 405.175 37.7109C402.863 37.7109 400.886 38.2281 399.243 39.2625C397.661 40.2361 396.687 41.7573 396.322 43.8262H384.365C384.669 40.5404 385.734 37.7109 387.56 35.3378C389.446 32.9039 391.91 31.0176 394.953 29.6789C398.056 28.3402 401.494 27.6709 405.267 27.6709C409.587 27.6709 413.329 28.4011 416.493 29.8614C419.657 31.3218 422.091 33.4211 423.795 36.1593C425.499 38.8975 426.351 42.2746 426.351 46.2906V74.7677H415.946L414.577 67.7397C413.907 68.9567 413.116 70.052 412.203 71.0255C411.291 71.9991 410.226 72.851 409.009 73.5812C407.792 74.3114 406.423 74.859 404.902 75.2241C403.38 75.65 401.707 75.863 399.882 75.863ZM402.802 66.3706C404.384 66.3706 405.784 66.0968 407.001 65.5492C408.279 64.9407 409.374 64.1496 410.287 63.1761C411.199 62.1416 411.899 60.9855 412.386 59.7077C412.934 58.369 413.299 56.9391 413.481 55.4179V55.3266H404.08C402.194 55.3266 400.642 55.57 399.425 56.0568C398.269 56.4827 397.417 57.1216 396.87 57.9735C396.322 58.8254 396.048 59.799 396.048 60.8942C396.048 62.1112 396.322 63.1152 396.87 63.9062C397.417 64.6973 398.208 65.3058 399.243 65.7317C400.277 66.1576 401.464 66.3706 402.802 66.3706ZM454.379 74.7677C451.154 74.7677 448.324 74.2809 445.89 73.3074C443.517 72.2729 441.661 70.5996 440.323 68.2874C438.984 65.9143 438.315 62.6893 438.315 58.6124V39.08H430.465V28.7662H438.315L439.684 16.2618H450.637V28.7662H462.776V39.08H450.637V58.795C450.637 60.8638 451.093 62.2938 452.006 63.0848C452.918 63.8758 454.47 64.2713 456.661 64.2713H462.685V74.7677H454.379ZM490.424 75.863C485.8 75.863 481.693 74.8894 478.103 72.9423C474.573 70.9343 471.805 68.1657 469.797 64.6364C467.85 61.0464 466.876 56.9087 466.876 52.2233C466.876 47.4163 467.85 43.1873 469.797 39.5364C471.805 35.8246 474.573 32.9343 478.103 30.8654C481.632 28.7357 485.739 27.6709 490.424 27.6709C494.988 27.6709 498.974 28.6749 502.381 30.6829C505.789 32.6909 508.436 35.3987 510.322 38.8062C512.208 42.2137 513.151 46.0776 513.151 50.3978C513.151 51.0063 513.151 51.7061 513.151 52.4971C513.151 53.2273 513.091 53.9879 512.969 54.779H475.638V47.2946H500.738C500.556 44.313 499.491 41.9703 497.544 40.2666C495.657 38.5628 493.284 37.7109 490.424 37.7109C488.356 37.7109 486.439 38.1977 484.674 39.1713C482.91 40.084 481.51 41.5139 480.476 43.4611C479.502 45.4083 479.015 47.8726 479.015 50.8542V53.5011C479.015 55.9959 479.472 58.1865 480.384 60.0728C481.358 61.8982 482.697 63.3282 484.4 64.3626C486.104 65.3362 488.082 65.823 490.333 65.823C492.585 65.823 494.44 65.3362 495.901 64.3626C497.422 63.389 498.548 62.1416 499.278 60.6204H511.874C511.022 63.4803 509.592 66.0664 507.584 68.3786C505.576 70.6909 503.111 72.5163 500.191 73.855C497.27 75.1937 494.014 75.863 490.424 75.863Z" fill="url(#paint1_linear_10_65)"/>
<path d="M131.214 74.7677V10.8767H143.536V65.1841H171.557V74.7677H131.214ZM193.701 75.863C189.868 75.863 186.703 75.2545 184.209 74.0375C181.714 72.7597 179.858 71.0864 178.641 69.0175C177.485 66.8878 176.907 64.5452 176.907 61.9895C176.907 59.1905 177.607 56.7261 179.006 54.5964C180.466 52.4667 182.627 50.7934 185.486 49.5764C188.407 48.3594 192.058 47.7509 196.439 47.7509H207.848C207.848 45.4995 207.544 43.6437 206.936 42.1833C206.327 40.6621 205.384 39.5364 204.106 38.8062C202.828 38.076 201.125 37.7109 198.995 37.7109C196.683 37.7109 194.705 38.2281 193.062 39.2625C191.48 40.2361 190.506 41.7573 190.141 43.8262H178.185C178.489 40.5404 179.554 37.7109 181.379 35.3378C183.265 32.9039 185.73 31.0176 188.772 29.6789C191.876 28.3402 195.313 27.6709 199.086 27.6709C203.406 27.6709 207.149 28.4011 210.313 29.8614C213.477 31.3218 215.911 33.4211 217.615 36.1593C219.318 38.8975 220.17 42.2746 220.17 46.2906V74.7677H209.765L208.396 67.7397C207.727 68.9567 206.936 70.052 206.023 71.0255C205.11 71.9991 204.045 72.851 202.828 73.5812C201.611 74.3114 200.242 74.859 198.721 75.2241C197.2 75.65 195.526 75.863 193.701 75.863ZM196.622 66.3706C198.204 66.3706 199.603 66.0968 200.82 65.5492C202.098 64.9407 203.193 64.1496 204.106 63.1761C205.019 62.1416 205.719 60.9855 206.205 59.7077C206.753 58.369 207.118 56.9391 207.301 55.4179V55.3266H197.9C196.013 55.3266 194.462 55.57 193.245 56.0568C192.089 56.4827 191.237 57.1216 190.689 57.9735C190.141 58.8254 189.868 59.799 189.868 60.8942C189.868 62.1112 190.141 63.1152 190.689 63.9062C191.237 64.6973 192.028 65.3058 193.062 65.7317C194.097 66.1576 195.283 66.3706 196.622 66.3706ZM228.014 74.7677V28.7662H238.875L239.879 34.8814C241.34 32.6909 243.257 30.9567 245.63 29.6789C248.064 28.3402 250.832 27.6709 253.935 27.6709C256.248 27.6709 258.317 27.9751 260.142 28.5836C261.967 29.1921 263.58 30.0744 264.979 31.2305C266.44 32.3867 267.626 33.847 268.539 35.6116C270.243 33.1168 272.464 31.1697 275.202 29.7702C277.94 28.3706 280.922 27.6709 284.147 27.6709C288.163 27.6709 291.509 28.4923 294.187 30.1353C296.864 31.7173 298.872 34.0296 300.211 37.072C301.61 40.1144 302.31 43.8566 302.31 48.2986V74.7677H290.08V49.3938C290.08 45.7429 289.349 42.9439 287.889 40.9967C286.489 39.0496 284.299 38.076 281.317 38.076C279.37 38.076 277.636 38.5628 276.115 39.5364C274.594 40.5099 273.407 41.9095 272.555 43.7349C271.764 45.5604 271.369 47.7509 271.369 50.3066V74.7677H259.047V49.3938C259.047 45.7429 258.317 42.9439 256.856 40.9967C255.396 39.0496 253.144 38.076 250.102 38.076C248.216 38.076 246.512 38.5628 244.991 39.5364C243.53 40.5099 242.374 41.9095 241.522 43.7349C240.731 45.5604 240.336 47.7509 240.336 50.3066V74.7677H228.014ZM310.562 74.7677V28.7662H322.884V74.7677H310.562ZM316.768 22.4683C314.578 22.4683 312.752 21.8294 311.292 20.5516C309.892 19.2129 309.193 17.5396 309.193 15.5316C309.193 13.5236 309.892 11.8807 311.292 10.6028C312.752 9.26417 314.578 8.59483 316.768 8.59483C319.02 8.59483 320.845 9.26417 322.245 10.6028C323.705 11.8807 324.435 13.5236 324.435 15.5316C324.435 17.5396 323.705 19.2129 322.245 20.5516C320.845 21.8294 319.02 22.4683 316.768 22.4683ZM331.684 74.7677V28.7662H342.545L343.458 36.2505C344.857 33.6949 346.835 31.626 349.391 30.044C352.007 28.4619 355.11 27.6709 358.7 27.6709C362.534 27.6709 365.759 28.4619 368.375 30.044C370.992 31.626 372.969 33.9383 374.308 36.9807C375.708 40.0232 376.407 43.7653 376.407 48.2073V74.7677H364.177V49.3938C364.177 45.7429 363.386 42.9439 361.804 40.9967C360.282 39.0496 357.909 38.076 354.684 38.076C352.616 38.076 350.76 38.5628 349.117 39.5364C347.535 40.5099 346.287 41.9095 345.375 43.7349C344.462 45.4995 344.005 47.6597 344.005 50.2153V74.7677H331.684ZM399.882 75.863C396.048 75.863 392.884 75.2545 390.389 74.0375C387.894 72.7597 386.039 71.0864 384.822 69.0175C383.665 66.8878 383.087 64.5452 383.087 61.9895C383.087 59.1905 383.787 56.7261 385.187 54.5964C386.647 52.4667 388.807 50.7934 391.667 49.5764C394.588 48.3594 398.239 47.7509 402.62 47.7509H414.029C414.029 45.4995 413.725 43.6437 413.116 42.1833C412.508 40.6621 411.565 39.5364 410.287 38.8062C409.009 38.076 407.305 37.7109 405.175 37.7109C402.863 37.7109 400.886 38.2281 399.243 39.2625C397.661 40.2361 396.687 41.7573 396.322 43.8262H384.365C384.669 40.5404 385.734 37.7109 387.56 35.3378C389.446 32.9039 391.91 31.0176 394.953 29.6789C398.056 28.3402 401.494 27.6709 405.267 27.6709C409.587 27.6709 413.329 28.4011 416.493 29.8614C419.657 31.3218 422.091 33.4211 423.795 36.1593C425.499 38.8975 426.351 42.2746 426.351 46.2906V74.7677H415.946L414.577 67.7397C413.907 68.9567 413.116 70.052 412.203 71.0255C411.291 71.9991 410.226 72.851 409.009 73.5812C407.792 74.3114 406.423 74.859 404.902 75.2241C403.38 75.65 401.707 75.863 399.882 75.863ZM402.802 66.3706C404.384 66.3706 405.784 66.0968 407.001 65.5492C408.279 64.9407 409.374 64.1496 410.287 63.1761C411.199 62.1416 411.899 60.9855 412.386 59.7077C412.934 58.369 413.299 56.9391 413.481 55.4179V55.3266H404.08C402.194 55.3266 400.642 55.57 399.425 56.0568C398.269 56.4827 397.417 57.1216 396.87 57.9735C396.322 58.8254 396.048 59.799 396.048 60.8942C396.048 62.1112 396.322 63.1152 396.87 63.9062C397.417 64.6973 398.208 65.3058 399.243 65.7317C400.277 66.1576 401.464 66.3706 402.802 66.3706ZM454.379 74.7677C451.154 74.7677 448.324 74.2809 445.89 73.3074C443.517 72.2729 441.661 70.5996 440.323 68.2874C438.984 65.9143 438.315 62.6893 438.315 58.6124V39.08H430.465V28.7662H438.315L439.684 16.2618H450.637V28.7662H462.776V39.08H450.637V58.795C450.637 60.8638 451.093 62.2938 452.006 63.0848C452.918 63.8758 454.47 64.2713 456.661 64.2713H462.685V74.7677H454.379ZM490.424 75.863C485.8 75.863 481.693 74.8894 478.103 72.9423C474.573 70.9343 471.805 68.1657 469.797 64.6364C467.85 61.0464 466.876 56.9087 466.876 52.2233C466.876 47.4163 467.85 43.1873 469.797 39.5364C471.805 35.8246 474.573 32.9343 478.103 30.8654C481.632 28.7357 485.739 27.6709 490.424 27.6709C494.988 27.6709 498.974 28.6749 502.381 30.6829C505.789 32.6909 508.436 35.3987 510.322 38.8062C512.208 42.2137 513.151 46.0776 513.151 50.3978C513.151 51.0063 513.151 51.7061 513.151 52.4971C513.151 53.2273 513.091 53.9879 512.969 54.779H475.638V47.2946H500.738C500.556 44.313 499.491 41.9703 497.544 40.2666C495.657 38.5628 493.284 37.7109 490.424 37.7109C488.356 37.7109 486.439 38.1977 484.674 39.1713C482.91 40.084 481.51 41.5139 480.476 43.4611C479.502 45.4083 479.015 47.8726 479.015 50.8542V53.5011C479.015 55.9959 479.472 58.1865 480.384 60.0728C481.358 61.8982 482.697 63.3282 484.4 64.3626C486.104 65.3362 488.082 65.823 490.333 65.823C492.585 65.823 494.44 65.3362 495.901 64.3626C497.422 63.389 498.548 62.1416 499.278 60.6204H511.874C511.022 63.4803 509.592 66.0664 507.584 68.3786C505.576 70.6909 503.111 72.5163 500.191 73.855C497.27 75.1937 494.014 75.863 490.424 75.863Z" fill="white" fill-opacity="0.68"/>
<defs>
<filter id="filter0_ii_10_65" x="-6.79851" y="-4.69275" width="102.339" height="93.7882" filterUnits="userSpaceOnUse" color-interpolation-filters="sRGB">
<feFlood flood-opacity="0" result="BackgroundImageFix"/>
<feBlend mode="normal" in="SourceGraphic" in2="BackgroundImageFix" result="shape"/>
<feColorMatrix in="SourceAlpha" type="matrix" values="0 0 0 0 0 0 0 0 0 0 0 0 0 0 0 0 0 0 127 0" result="hardAlpha"/>
<feOffset dx="5.87504" dy="-5.14066"/>
<feGaussianBlur stdDeviation="4.22269"/>
<feComposite in2="hardAlpha" operator="arithmetic" k2="-1" k3="1"/>
<feColorMatrix type="matrix" values="0 0 0 0 1 0 0 0 0 1 0 0 0 0 1 0 0 0 0.3 0"/>
<feBlend mode="normal" in2="shape" result="effect1_innerShadow_10_65"/>
<feColorMatrix in="SourceAlpha" type="matrix" values="0 0 0 0 0 0 0 0 0 0 0 0 0 0 0 0 0 0 127 0" result="hardAlpha"/>
<feOffset dx="-7.3438" dy="2.93752"/>
<feGaussianBlur stdDeviation="4.22269"/>
<feComposite in2="hardAlpha" operator="arithmetic" k2="-1" k3="1"/>
<feColorMatrix type="matrix" values="0 0 0 0 1 0 0 0 0 1 0 0 0 0 1 0 0 0 0.3 0"/>
<feBlend mode="normal" in2="effect1_innerShadow_10_65" result="effect2_innerShadow_10_65"/>
</filter>
<linearGradient id="paint0_linear_10_65" x1="45.1056" y1="0.447906" x2="45.1056" y2="86.1579" gradientUnits="userSpaceOnUse">
<stop offset="0.208574" stop-color="#C2D4FF"/>
<stop offset="1" stop-color="#809BDB"/>
</linearGradient>
<linearGradient id="paint1_linear_10_65" x1="321.416" y1="10.7677" x2="321.416" y2="74.7677" gradientUnits="userSpaceOnUse">
<stop offset="0.521952" stop-color="#C2D4FF"/>
<stop offset="1" stop-color="#809BDB"/>
</linearGradient>
</defs>
</svg>